<?xml version="1.0" encoding="UTF-8" standalone="no"?>
<svg
   version="1.1"
   width="2400"
   height="1600"
   viewBox="0 0 2400 1600"
   id="svg20219"
   sodipodi:docname="Arsène_Heitz_Flag_Proposal ten do poprawy.svg"
   inkscape:version="1.2.2 (732a01da63, 2022-12-09)"
   xml:space="preserve"
   xmlns:inkscape="http://www.inkscape.org/namespaces/inkscape"
   xmlns:sodipodi="http://sodipodi.sourceforge.net/DTD/sodipodi-0.dtd"
   xmlns="http://www.w3.org/2000/svg"
   xmlns:svg="http://www.w3.org/2000/svg"><defs
     id="defs20223"><inkscape:path-effect
       effect="spiro"
       id="path-effect7855"
       is_visible="true" /><inkscape:path-effect
       effect="spiro"
       id="path-effect7851"
       is_visible="true" /><inkscape:path-effect
       effect="spiro"
       id="path-effect7847"
       is_visible="true" /><inkscape:path-effect
       effect="spiro"
       id="path-effect7843"
       is_visible="true" /><inkscape:path-effect
       effect="spiro"
       id="path-effect7839"
       is_visible="true" /><inkscape:path-effect
       effect="spiro"
       id="path-effect7835"
       is_visible="true" /><inkscape:path-effect
       effect="spiro"
       id="path-effect7831"
       is_visible="true" /><inkscape:path-effect
       effect="spiro"
       id="path-effect7827"
       is_visible="true" /><inkscape:path-effect
       effect="spiro"
       id="path-effect7809"
       is_visible="true" /><inkscape:path-effect
       effect="spiro"
       id="path-effect7805"
       is_visible="true" /><inkscape:path-effect
       effect="spiro"
       id="path-effect7801"
       is_visible="true" /></defs><sodipodi:namedview
     id="namedview20221"
     pagecolor="#ffffff"
     bordercolor="#000000"
     borderopacity="0.25"
     inkscape:showpageshadow="2"
     inkscape:pageopacity="0.0"
     inkscape:pagecheckerboard="0"
     inkscape:deskcolor="#d1d1d1"
     showgrid="false"
     showguides="true"
     inkscape:zoom="0.085768014"
     inkscape:cx="-787.00668"
     inkscape:cy="687.90213"
     inkscape:window-width="1366"
     inkscape:window-height="705"
     inkscape:window-x="-8"
     inkscape:window-y="-8"
     inkscape:window-maximized="1"
     inkscape:current-layer="svg20219"><sodipodi:guide
       position="0,1600"
       orientation="-0.70710678,-0.70710678"
       id="guide20573"
       inkscape:locked="false" /><sodipodi:guide
       position="0,0"
       orientation="0.70710678,-0.70710678"
       id="guide20575"
       inkscape:locked="false" /><sodipodi:guide
       position="2400,0"
       orientation="-0.70710678,-0.70710678"
       id="guide20577"
       inkscape:locked="false" /><sodipodi:guide
       position="2400,1600"
       orientation="0.70710678,-0.70710678"
       id="guide20579"
       inkscape:locked="false" /><sodipodi:guide
       position="1200,1200"
       orientation="1,0"
       id="guide20581"
       inkscape:locked="false" /><sodipodi:guide
       position="800,800"
       orientation="0,-1"
       id="guide20583"
       inkscape:locked="false" /><sodipodi:guide
       position="1200,400"
       orientation="0,-1"
       id="guide20585"
       inkscape:locked="false" /><sodipodi:guide
       position="800,800"
       orientation="1,0"
       id="guide20587"
       inkscape:locked="false" /><sodipodi:guide
       position="1200,1200"
       orientation="0,-1"
       id="guide20589"
       inkscape:locked="false" /><sodipodi:guide
       position="1600,800"
       orientation="1,0"
       id="guide20591"
       inkscape:locked="false" /></sodipodi:namedview><path
     id="Rectángulo-22"
     d="M 0,0 H 2400 V 1600 H 0 Z"
     fill="#0000cc"
     style="fill:#003399;fill-opacity:1" /><path
     style="opacity:1;fill:#ffcc00;fill-opacity:1;stroke:none;stroke-width:0.667007px;stroke-linecap:butt;stroke-linejoin:miter;stroke-opacity:1"
     d="m 954.736,293.346 -22.4619,69.13307 h -72.6922 l 58.8087,42.72761 -22.4632,69.13431 58.8086,-42.72761 58.8088,42.72761 -22.4633,-69.13431 58.8088,-42.72761 h -72.6922 z"
     id="path5812-8-35" /><path
     style="fill:#ffcc00;fill-opacity:1;stroke:none;stroke-width:1.02822px;stroke-linecap:butt;stroke-linejoin:miter;stroke-opacity:1;opacity:1"
     d="m 1200,657.71925 -34.6262,106.57154 h -112.058 l 90.6562,65.86642 -34.6282,106.57347 90.6562,-65.86642 90.6562,65.86642 -34.6282,-106.57347 90.6562,-65.86642 h -112.058 z"
     id="path5812" /><path
     style="opacity:1;fill:#ffcc00;fill-opacity:1;stroke:none;stroke-width:0.667007px;stroke-linecap:butt;stroke-linejoin:miter;stroke-opacity:1"
     d="m 1199.9999,221.77163 -22.4619,69.13307 h -72.6922 l 58.8087,42.72761 -22.4632,69.13431 58.8086,-42.72761 58.8088,42.72761 -22.4633,-69.13431 58.8088,-42.72761 h -72.6922 z"
     id="path5812-8" /><path
     style="opacity:1;fill:#ffcc00;fill-opacity:1;stroke:none;stroke-width:0.667007px;stroke-linecap:butt;stroke-linejoin:miter;stroke-opacity:1"
     d="m 1445.264,293.346 -22.4619,69.13307 h -72.6922 l 58.8087,42.72761 -22.4632,69.13431 58.8086,-42.72761 58.8088,42.72761 -22.4633,-69.13431 58.8088,-42.72761 h -72.6922 z"
     id="path5812-8-3" /><path
     style="opacity:1;fill:#ffcc00;fill-opacity:1;stroke:none;stroke-width:0.667007px;stroke-linecap:butt;stroke-linejoin:miter;stroke-opacity:1"
     d="m 1619.597,467.68 -22.4619,69.13307 h -72.6922 l 58.8087,42.72761 -22.4632,69.13431 58.8086,-42.72761 58.8088,42.72761 -22.4633,-69.13431 58.8088,-42.72761 h -72.6922 z"
     id="path5812-8-2" /><path
     style="opacity:1;fill:#ffcc00;fill-opacity:1;stroke:none;stroke-width:0.667007px;stroke-linecap:butt;stroke-linejoin:miter;stroke-opacity:1"
     d="m 1685.942,712.947 -22.4619,69.13307 h -72.6922 l 58.8087,42.72761 -22.4632,69.13431 58.8086,-42.72761 58.8088,42.72761 -22.4633,-69.13431 58.8088,-42.72761 h -72.6922 z"
     id="path5812-8-1" /><path
     style="opacity:1;fill:#ffcc00;fill-opacity:1;stroke:none;stroke-width:0.667007px;stroke-linecap:butt;stroke-linejoin:miter;stroke-opacity:1"
     d="m 1619.597,958.214 -22.4619,69.1331 h -72.6922 l 58.8087,42.7276 -22.4632,69.1343 58.8086,-42.7276 58.8088,42.7276 -22.4633,-69.1343 58.8088,-42.7276 h -72.6922 z"
     id="path5812-8-8" /><path
     style="opacity:1;fill:#ffcc00;fill-opacity:1;stroke:none;stroke-width:0.667007px;stroke-linecap:butt;stroke-linejoin:miter;stroke-opacity:1"
     d="m 1445.264,1132.549 -22.4619,69.1331 h -72.6922 l 58.8087,42.7275 -22.4632,69.1343 58.8086,-42.7276 58.8088,42.7276 -22.4633,-69.1343 58.8088,-42.7275 h -72.6922 z"
     id="path5812-8-28" /><path
     style="opacity:1;fill:#ffcc00;fill-opacity:1;stroke:none;stroke-width:0.667007px;stroke-linecap:butt;stroke-linejoin:miter;stroke-opacity:1"
     d="m 1200,1200 -22.4619,69.1331 h -72.6922 l 58.8087,42.7276 -22.4632,69.1342 58.8086,-42.7275 58.8088,42.7275 -22.4633,-69.1342 58.8088,-42.7276 h -72.6922 z"
     id="path5812-8-13" /><path
     style="opacity:1;fill:#ffcc00;fill-opacity:1;stroke:none;stroke-width:0.667007px;stroke-linecap:butt;stroke-linejoin:miter;stroke-opacity:1"
     d="m 954.736,1132.549 -22.4619,69.1331 h -72.69219 l 58.8087,42.7275 -22.4632,69.1343 58.80859,-42.7276 58.8088,42.7276 -22.4633,-69.1343 58.8088,-42.7275 h -72.6922 z"
     id="path5812-8-135" /><path
     style="opacity:1;fill:#ffcc00;fill-opacity:1;stroke:none;stroke-width:0.667007px;stroke-linecap:butt;stroke-linejoin:miter;stroke-opacity:1"
     d="m 780.403,957.3966 -22.4619,69.1331 h -72.6922 l 58.8087,42.7276 -22.4632,69.1343 58.8086,-42.7276 58.8088,42.7276 -22.4633,-69.1343 58.8088,-42.7276 h -72.6922 z"
     id="path5812-8-9" /><path
     style="opacity:1;fill:#ffcc00;fill-opacity:1;stroke:none;stroke-width:0.667007px;stroke-linecap:butt;stroke-linejoin:miter;stroke-opacity:1"
     d="m 714.057,712.947 -22.4619,69.13307 h -72.6922 l 58.8087,42.72761 -22.4632,69.13431 58.8086,-42.72761 58.8088,42.72761 -22.4633,-69.13431 58.8088,-42.72761 h -72.6922 z"
     id="path5812-8-18" /><path
     style="opacity:1;fill:#ffcc00;fill-opacity:1;stroke:none;stroke-width:0.667007px;stroke-linecap:butt;stroke-linejoin:miter;stroke-opacity:1"
     d="m 780.403,467.68 -22.4619,69.13307 h -72.6922 l 58.8087,42.72761 -22.4632,69.13431 58.8086,-42.72761 58.8088,42.72761 -22.4633,-69.13431 58.8088,-42.72761 h -72.6922 z"
     id="path5812-8-37" /></svg>
